<?xml version="1.0" encoding="utf-8"?>
<svg version="1.1" id="Layer_1" xmlns="http://www.w3.org/2000/svg" xmlns:xlink="http://www.w3.org/1999/xlink" x="0px" y="0px"
	 viewBox="0 0 40 40" style="enable-background:new 0 0 40 40;" xml:space="preserve">
<style type="text/css">
	.st0{fill:currentColor;}
</style>
<g>
	<path class="st0" d="M27.8,15.8c-2.1,0-3.6,1.4-4.2,5.7c0.4,0.7,1.9,2.5,4.2,2.5c2,0,3.6-1.7,3.6-4.1
		C31.4,17.4,29.8,15.8,27.8,15.8z"/>
	<path class="st0" d="M20,0C9,0,0,9,0,20s9,20,20,20s20-9,20-20S31,0,20,0z M27.8,26.6c-0.1,0-0.3,0-0.3,0c-1.2,0-2.3-0.4-3.3-1
		c-0.4-0.2-0.7-0.5-1.1-0.8l-1,6.4h-3l1.6-9.1c-1.7-2.4-2.6-5.1-2.9-6.5v4.3c0,3.9-2.5,6.7-6,6.7c-1.8,0-3.3-0.7-4.4-1.9
		c-1.1-1.2-1.7-2.9-1.7-4.8v-6.4h2.9l0,6.4c0,2.3,1.2,4,3.2,4c2,0,3.1-1.7,3.1-4v-6.4h5.1c0.4,1.6,0.9,3.3,1.5,4.6
		c0.6-2.5,2.6-4.9,6.3-4.9c3.6,0,6.5,2.9,6.5,6.7S31.5,26.6,27.8,26.6z"/>
</g>
</svg>
